<?xml version="1.0" encoding="utf-8"?>
<!-- Generator: Adobe Illustrator 18.1.0, SVG Export Plug-In . SVG Version: 6.00 Build 0)  -->
<!DOCTYPE svg PUBLIC "-//W3C//DTD SVG 1.1//EN" "http://www.w3.org/Graphics/SVG/1.1/DTD/svg11.dtd">
<svg version="1.1" id="Layer_1" xmlns="http://www.w3.org/2000/svg" xmlns:xlink="http://www.w3.org/1999/xlink" x="0px" y="0px"
	 viewBox="-165 144.8 168.5 213.2" enable-background="new -165 144.8 168.5 213.2" xml:space="preserve">
<g>
</g>
<g>
	<path d="M-85.1,158.9c2.1,0,4.1,0,6.2,0c1.6,0.3,3.3,0.5,4.9,0.8c25.7,5,40.2,33.1,29.5,57c-0.4,1-0.9,2-1.5,3.1
		c9.9-1.9,19.2-0.7,27.9,4c8.8,4.7,15.1,11.8,18.8,21c6.5,16.1,1.9,34.9-11.3,46.1c-8.5,7.3-18.4,10.6-29.5,9.9
		c-11.1-0.7-20.4-5.4-28.2-13.8c0,19.7,0,39,0,58.2c-8.4,0-16.7,0-25.1,0c0-19,0-38,0-57c-0.2,0.1-0.2,0.1-0.2,0.2
		c-0.3,0.3-0.6,0.6-0.8,0.8c-9.8,9.7-21.6,13.9-35.3,12c-16.6-2.3-30.1-14.6-34-31c-0.5-2.1-0.8-4.3-1.2-6.5c0-2.1,0-4.1,0-6.2
		c0.1-0.2,0.2-0.4,0.2-0.7c0.5-6.2,2.3-11.9,5.6-17.2c7.2-11.7,17.7-18.4,31.4-19.8c3.3-0.3,6.6,0,9.9,0c-0.1-0.2-0.2-0.5-0.4-0.8
		c-4-7.8-5.5-16.1-4.3-24.8c2.3-16.7,14.7-30.3,31.1-34.1C-89.4,159.5-87.3,159.3-85.1,158.9z"/>
</g>
</svg>
