<svg xmlns="http://www.w3.org/2000/svg" width="168.507" height="213.213"><path d="M131.104 71.041c14.987 4.103 26.232 13.04 32.841 27.34 5.474 11.845 6.017 24.127 1.656 36.422-4.933 13.907-14.386 23.768-28.075 29.261-13.685 5.492-27.259 4.607-40.655-1.785v42.704h-25.422v-42.336c-14.754 6.635-29.358 6.858-43.767-.287-11.568-5.736-19.689-14.819-24.073-26.967-4.895-13.562-4.005-26.916 2.768-39.668 6.75-12.709 17.37-20.723 31.026-24.543-5.946-24.56.71-44.163 22.3-58.054 17.658-9.413 35.358-9.408 51.849 1.918 19.823 13.614 25.327 32.983 19.552 55.995z"/></svg>