<svg xmlns="http://www.w3.org/2000/svg" width="168.507" height="213.213"><path fill="#f00" d="M84.203 183.953c-.273-.347-.513-.726-.823-1.036-21.85-21.818-43.684-43.652-65.577-65.428-5.228-5.2-9.859-10.763-12.895-17.57-12.729-28.541 4.781-62.132 35.481-67.771 16.575-3.044 31.084 1.367 43.465 12.792l.444.394c3.562-2.56 6.852-5.344 10.515-7.49 28.993-16.987 66.476-.011 72.652 33.021 3.317 17.74-1.998 32.905-15.015 45.382-1.213 1.162-2.435 2.315-3.624 3.501-21.066 21.019-42.128 42.041-63.18 63.073-.361.361-.59.854-.88 1.286l-.563-.154z"/></svg>