<svg xmlns="http://www.w3.org/2000/svg" width="168.507" height="213.213"><path d="M96.287 160.291v42.659h-25.413v-42.361c-.549.237-.934.394-1.313.567-29.045 13.317-63.132-4.282-68.702-35.75-3.08-17.403 2.17-32.36 14.88-44.668 1.235-1.196 2.503-2.359 3.72-3.573 21.149-21.102 42.293-42.21 63.434-63.321.337-.337.625-.723 1.013-1.177.47.447.814.76 1.143 1.089 21.882 21.84 43.741 43.704 65.66 65.507 5.227 5.2 9.867 10.757 12.895 17.567 12.713 28.595-4.717 62.012-35.416 67.848-10.714 2.037-20.992.714-30.85-3.935-.31-.146-.631-.272-1.051-.452z"/></svg>